# Blender v2.72 (sub 0) OBJ File: ''
# www.blender.org
o Icosphere
v 0.000000 -1.000000 0.000000
v 0.723607 -0.447220 0.525725
v -0.276388 -0.447220 0.850649
v -0.894426 -0.447216 0.000000
v -0.276388 -0.447220 -0.850649
v 0.723607 -0.447220 -0.525725
v 0.276388 0.447220 0.850649
v -0.723607 0.447220 0.525725
v -0.723607 0.447220 -0.525725
v 0.276388 0.447220 -0.850649
v 0.894426 0.447216 0.000000
v 0.000000 1.000000 0.000000
v -0.162456 -0.850654 0.499995
v 0.425323 -0.850654 0.309011
v 0.262869 -0.525738 0.809012
v 0.850648 -0.525736 0.000000
v 0.425323 -0.850654 -0.309011
v -0.525730 -0.850652 0.000000
v -0.688189 -0.525736 0.499997
v -0.162456 -0.850654 -0.499995
v -0.688189 -0.525736 -0.499997
v 0.262869 -0.525738 -0.809012
v 0.951058 0.000000 0.309013
v 0.951058 0.000000 -0.309013
v 0.000000 0.000000 1.000000
v 0.587786 0.000000 0.809017
v -0.951058 0.000000 0.309013
v -0.587786 0.000000 0.809017
v -0.587786 0.000000 -0.809017
v -0.951058 0.000000 -0.309013
v 0.587786 0.000000 -0.809017
v 0.000000 0.000000 -1.000000
v 0.688189 0.525736 0.499997
v -0.262869 0.525738 0.809012
v -0.850648 0.525736 0.000000
v -0.262869 0.525738 -0.809012
v 0.688189 0.525736 -0.499997
v 0.162456 0.850654 0.499995
v 0.525730 0.850652 0.000000
v -0.425323 0.850654 0.309011
v -0.425323 0.850654 -0.309011
v 0.162456 0.850654 -0.499995
vt 0.939458 0.061928
vt 1.305455 -0.071928
vt 1.102669 0.138710
vt 0.397348 0.138802
vt 0.305455 -0.071928
vt 0.548603 0.125783
vt 0.983526 0.271254
vt 0.860770 0.247355
vt 0.741344 0.081202
vt 0.463427 0.320931
vt 0.173049 0.315567
vt 0.260021 0.175777
vt 0.254282 0.425544
vt 0.002994 0.486799
vt 0.082636 0.385628
vt 0.069761 0.633676
vt 0.826562 0.453414
vt 0.915122 0.464331
vt 0.853364 0.663754
vt 0.653772 0.252355
vt 0.749980 0.330816
vt 0.663882 0.471437
vt 0.353364 0.342447
vt 0.163882 0.534764
vt -0.036573 0.685270
vt 0.754282 0.580657
vt 0.569761 0.372525
vt 0.326562 0.552787
vt 0.415122 0.541870
vt 0.360770 0.758846
vt 0.153772 0.753846
vt 0.249980 0.675385
vt 0.241344 0.924999
vt 0.897348 0.867399
vt 1.048603 0.880417
vt 0.805455 1.078129
vt 0.673049 0.690633
vt 0.760021 0.830424
vt 0.602669 0.867491
vt 0.502994 0.519402
vt 0.582636 0.620572
vt 0.483526 0.734947
vt 0.102669 0.138710
vt -0.016474 0.271254
vt 1.002994 0.486799
vt 0.963427 0.685270
vt 0.048603 0.880417
vt 0.439458 0.944273
vt 1.241344 0.924999
vn 0.000000 -1.000000 0.000000
vn 0.425300 -0.850600 0.309000
vn -0.162500 -0.850600 0.500000
vn 0.723600 -0.447200 0.525700
vn 0.850600 -0.525700 0.000000
vn -0.525700 -0.850600 0.000000
vn -0.162500 -0.850600 -0.500000
vn 0.425300 -0.850600 -0.309000
vn 0.951000 0.000000 0.309000
vn -0.276400 -0.447200 0.850600
vn 0.262900 -0.525700 0.809000
vn 0.000000 0.000000 1.000000
vn -0.894400 -0.447200 0.000000
vn -0.688200 -0.525700 0.500000
vn -0.951000 0.000000 0.309000
vn -0.276400 -0.447200 -0.850600
vn -0.688200 -0.525700 -0.500000
vn -0.587800 0.000000 -0.809000
vn 0.723600 -0.447200 -0.525700
vn 0.262900 -0.525700 -0.809000
vn 0.587800 0.000000 -0.809000
vn 0.587800 0.000000 0.809000
vn -0.587800 0.000000 0.809000
vn -0.951000 0.000000 -0.309000
vn 0.000000 0.000000 -1.000000
vn 0.951000 0.000000 -0.309000
vn 0.276400 0.447200 0.850600
vn 0.688200 0.525700 0.500000
vn 0.162500 0.850600 0.500000
vn -0.723600 0.447200 0.525700
vn -0.262900 0.525700 0.809000
vn -0.425300 0.850600 0.309000
vn -0.723600 0.447200 -0.525700
vn -0.850600 0.525700 0.000000
vn -0.425300 0.850600 -0.309000
vn 0.276400 0.447200 -0.850600
vn -0.262900 0.525700 -0.809000
vn 0.162500 0.850600 -0.500000
vn 0.894400 0.447200 0.000000
vn 0.688200 0.525700 -0.500000
vn 0.525700 0.850600 0.000000
vn 0.000000 1.000000 0.000000
s 1
f 1/1/1 14/2/2 13/3/3
f 2/4/4 14/5/2 16/6/5
f 1/1/1 13/3/3 18/7/6
f 1/1/1 18/7/6 20/8/7
f 1/1/1 20/8/7 17/9/8
f 2/4/4 16/6/5 23/10/9
f 3/11/10 15/12/11 25/13/12
f 4/14/13 19/15/14 27/16/15
f 5/17/16 21/18/17 29/19/18
f 6/20/19 22/21/20 31/22/21
f 2/4/4 23/10/9 26/23/22
f 3/11/10 25/13/12 28/24/23
f 4/14/13 27/16/15 30/25/24
f 5/17/16 29/19/18 32/26/25
f 6/20/19 31/22/21 24/27/26
f 7/28/27 33/29/28 38/30/29
f 8/31/30 34/32/31 40/33/32
f 9/34/33 35/35/34 41/36/35
f 10/37/36 36/38/37 42/39/38
f 11/40/39 37/41/40 39/42/41
f 13/43/3 15/12/11 3/11/10
f 13/43/3 14/5/2 15/12/11
f 14/5/2 2/4/4 15/12/11
f 16/6/5 17/9/8 6/20/19
f 16/6/5 14/5/2 17/9/8
f 14/2/2 1/1/1 17/9/8
f 18/44/6 19/15/14 4/14/13
f 18/44/6 13/43/3 19/15/14
f 13/43/3 3/11/10 19/15/14
f 20/8/7 21/18/17 5/17/16
f 20/8/7 18/7/6 21/18/17
f 18/7/6 4/45/13 21/18/17
f 17/9/8 22/21/20 6/20/19
f 17/9/8 20/8/7 22/21/20
f 20/8/7 5/17/16 22/21/20
f 23/10/9 24/27/26 11/40/39
f 23/10/9 16/6/5 24/27/26
f 16/6/5 6/20/19 24/27/26
f 25/13/12 26/23/22 7/28/27
f 25/13/12 15/12/11 26/23/22
f 15/12/11 2/4/4 26/23/22
f 27/16/15 28/24/23 8/31/30
f 27/16/15 19/15/14 28/24/23
f 19/15/14 3/11/10 28/24/23
f 29/19/18 30/46/24 9/34/33
f 29/19/18 21/18/17 30/46/24
f 21/18/17 4/45/13 30/46/24
f 31/22/21 32/26/25 10/37/36
f 31/22/21 22/21/20 32/26/25
f 22/21/20 5/17/16 32/26/25
f 26/23/22 33/29/28 7/28/27
f 26/23/22 23/10/9 33/29/28
f 23/10/9 11/40/39 33/29/28
f 28/24/23 34/32/31 8/31/30
f 28/24/23 25/13/12 34/32/31
f 25/13/12 7/28/27 34/32/31
f 30/46/24 35/35/34 9/34/33
f 30/25/24 27/16/15 35/47/34
f 27/16/15 8/31/30 35/47/34
f 32/26/25 36/38/37 10/37/36
f 32/26/25 29/19/18 36/38/37
f 29/19/18 9/34/33 36/38/37
f 24/27/26 37/41/40 11/40/39
f 24/27/26 31/22/21 37/41/40
f 31/22/21 10/37/36 37/41/40
f 38/30/29 39/42/41 12/48/42
f 38/30/29 33/29/28 39/42/41
f 33/29/28 11/40/39 39/42/41
f 40/33/32 38/30/29 12/48/42
f 40/33/32 34/32/31 38/30/29
f 34/32/31 7/28/27 38/30/29
f 41/36/35 40/49/32 12/48/42
f 41/36/35 35/35/34 40/49/32
f 35/47/34 8/31/30 40/33/32
f 42/39/38 41/36/35 12/48/42
f 42/39/38 36/38/37 41/36/35
f 36/38/37 9/34/33 41/36/35
f 39/42/41 42/39/38 12/48/42
f 39/42/41 37/41/40 42/39/38
f 37/41/40 10/37/36 42/39/38
